<svg width="752" height="400" viewBox="0 0 752 400" fill="none" xmlns="http://www.w3.org/2000/svg">
<path fill-rule="evenodd" clip-rule="evenodd" d="M144 48C144 21.4903 165.49 0 192 0C218.51 0 240 21.4903 240 48V116.478C240 167.576 207.75 212.852 160 229.797V352C160 369.673 174.327 384 192 384C209.673 384 224 369.673 224 352V226C224 221.582 227.582 218 232 218C236.418 218 240 221.582 240 226V352C240 378.51 218.51 400 192 400C165.49 400 144 378.51 144 352V48ZM160 212.652C198.435 196.585 224 158.839 224 116.478V48C224 30.3269 209.673 16 192 16C174.327 16 160 30.3269 160 48V212.652Z" fill="none"/>
<path fill-rule="evenodd" clip-rule="evenodd" d="M656 48C656 21.4903 677.49 0 704 0C730.51 0 752 21.4903 752 48V352C752 378.51 730.51 400 704 400C677.49 400 656 378.51 656 352V48ZM704 16C686.327 16 672 30.3269 672 48V352C672 369.673 686.327 384 704 384C721.673 384 736 369.673 736 352V48C736 30.3269 721.673 16 704 16Z" fill="none"/>
<path fill-rule="evenodd" clip-rule="evenodd" d="M0 48C0 21.4903 21.4903 0 48 0C74.5097 0 96 21.4903 96 48V392C96 396.418 92.4183 400 88 400C83.5817 400 80 396.418 80 392V48C80 30.3269 65.6731 16 48 16C30.3269 16 16 30.3269 16 48V392C16 396.418 12.4183 400 8 400C3.58172 400 0 396.418 0 392V48Z" fill="none"/>
<path fill-rule="evenodd" clip-rule="evenodd" d="M432 48C432 21.4903 453.49 0 480 0C496.696 0 511.401 8.52408 520 21.4576C528.599 8.52408 543.304 0 560 0C586.51 0 608 21.4903 608 48V392C608 396.418 604.418 400 600 400C595.582 400 592 396.418 592 392V48C592 30.3269 577.673 16 560 16C542.327 16 528 30.3269 528 48V320C528 324.418 524.418 328 520 328C515.582 328 512 324.418 512 320V48C512 30.3269 497.673 16 480 16C462.327 16 448 30.3269 448 48V392C448 396.418 444.418 400 440 400C435.582 400 432 396.418 432 392V48Z" fill="none"/>
<path fill-rule="evenodd" clip-rule="evenodd" d="M288 352C288 378.51 309.49 400 336 400C362.51 400 384 378.51 384 352V8C384 3.58173 380.418 0 376 0C371.582 0 368 3.58173 368 8V352C368 369.673 353.673 384 336 384C318.327 384 304 369.673 304 352V8C304 3.58173 300.418 0 296 0C291.582 0 288 3.58173 288 8V352Z" fill="none"/>
</svg>
