<svg width="800" height="448" viewBox="0 0 800 448" fill="none" xmlns="http://www.w3.org/2000/svg">
<g filter="url(#filter0_ddii_109_457)">
<path fill-rule="evenodd" clip-rule="evenodd" d="M168 72C168 45.4903 189.49 24 216 24C242.51 24 264 45.4903 264 72V140.478C264 191.576 231.75 236.852 184 253.797V376C184 393.673 198.327 408 216 408C233.673 408 248 393.673 248 376V250C248 245.582 251.582 242 256 242C260.418 242 264 245.582 264 250V376C264 402.51 242.51 424 216 424C189.49 424 168 402.51 168 376V72ZM184 236.652C222.435 220.585 248 182.839 248 140.478V72C248 54.3269 233.673 40 216 40C198.327 40 184 54.3269 184 72V236.652Z" fill="#DBE5F0"/>
<path fill-rule="evenodd" clip-rule="evenodd" d="M680 72C680 45.4903 701.49 24 728 24C754.51 24 776 45.4903 776 72V376C776 402.51 754.51 424 728 424C701.49 424 680 402.51 680 376V72ZM728 40C710.327 40 696 54.3269 696 72V376C696 393.673 710.327 408 728 408C745.673 408 760 393.673 760 376V72C760 54.3269 745.673 40 728 40Z" fill="#DBE5F0"/>
<path fill-rule="evenodd" clip-rule="evenodd" d="M24 72C24 45.4903 45.4903 24 72 24C98.5097 24 120 45.4903 120 72V416C120 420.418 116.418 424 112 424C107.582 424 104 420.418 104 416V72C104 54.3269 89.6731 40 72 40C54.3269 40 40 54.3269 40 72V416C40 420.418 36.4183 424 32 424C27.5817 424 24 420.418 24 416V72Z" fill="#DBE5F0"/>
<path fill-rule="evenodd" clip-rule="evenodd" d="M456 72C456 45.4903 477.49 24 504 24C520.696 24 535.401 32.5241 544 45.4576C552.599 32.5241 567.304 24 584 24C610.51 24 632 45.4903 632 72V416C632 420.418 628.418 424 624 424C619.582 424 616 420.418 616 416V72C616 54.3269 601.673 40 584 40C566.327 40 552 54.3269 552 72V344C552 348.418 548.418 352 544 352C539.582 352 536 348.418 536 344V72C536 54.3269 521.673 40 504 40C486.327 40 472 54.3269 472 72V416C472 420.418 468.418 424 464 424C459.582 424 456 420.418 456 416V72Z" fill="#DBE5F0"/>
<path fill-rule="evenodd" clip-rule="evenodd" d="M312 376C312 402.51 333.49 424 360 424C386.51 424 408 402.51 408 376V32C408 27.5817 404.418 24 400 24C395.582 24 392 27.5817 392 32V376C392 393.673 377.673 408 360 408C342.327 408 328 393.673 328 376V32C328 27.5817 324.418 24 320 24C315.582 24 312 27.5817 312 32V376Z" fill="#DBE5F0"/>
</g>
<defs>
<filter id="filter0_ddii_109_457" x="0" y="0" width="800" height="448" filterUnits="userSpaceOnUse" color-interpolation-filters="sRGB">
<feFlood flood-opacity="0" result="BackgroundImageFix"/>
<feColorMatrix in="SourceAlpha" type="matrix" values="0 0 0 0 0 0 0 0 0 0 0 0 0 0 0 0 0 0 127 0" result="hardAlpha"/>
<feOffset dx="8" dy="8"/>
<feGaussianBlur stdDeviation="8"/>
<feComposite in2="hardAlpha" operator="out"/>
<feColorMatrix type="matrix" values="0 0 0 0 0.703333 0 0 0 0 0.749365 0 0 0 0 0.8 0 0 0 1 0"/>
<feBlend mode="normal" in2="BackgroundImageFix" result="effect1_dropShadow_109_457"/>
<feColorMatrix in="SourceAlpha" type="matrix" values="0 0 0 0 0 0 0 0 0 0 0 0 0 0 0 0 0 0 127 0" result="hardAlpha"/>
<feOffset dx="-8" dy="-8"/>
<feGaussianBlur stdDeviation="8"/>
<feComposite in2="hardAlpha" operator="out"/>
<feColorMatrix type="matrix" values="0 0 0 0 1 0 0 0 0 1 0 0 0 0 1 0 0 0 0.4 0"/>
<feBlend mode="normal" in2="effect1_dropShadow_109_457" result="effect2_dropShadow_109_457"/>
<feBlend mode="normal" in="SourceGraphic" in2="effect2_dropShadow_109_457" result="shape"/>
<feColorMatrix in="SourceAlpha" type="matrix" values="0 0 0 0 0 0 0 0 0 0 0 0 0 0 0 0 0 0 127 0" result="hardAlpha"/>
<feOffset dx="4" dy="4"/>
<feGaussianBlur stdDeviation="4"/>
<feComposite in2="hardAlpha" operator="arithmetic" k2="-1" k3="1"/>
<feColorMatrix type="matrix" values="0 0 0 0 1 0 0 0 0 1 0 0 0 0 1 0 0 0 1 0"/>
<feBlend mode="normal" in2="shape" result="effect3_innerShadow_109_457"/>
<feColorMatrix in="SourceAlpha" type="matrix" values="0 0 0 0 0 0 0 0 0 0 0 0 0 0 0 0 0 0 127 0" result="hardAlpha"/>
<feOffset dx="-4" dy="-4"/>
<feGaussianBlur stdDeviation="4"/>
<feComposite in2="hardAlpha" operator="arithmetic" k2="-1" k3="1"/>
<feColorMatrix type="matrix" values="0 0 0 0 0.745098 0 0 0 0 0.792157 0 0 0 0 0.839216 0 0 0 1 0"/>
<feBlend mode="normal" in2="effect3_innerShadow_109_457" result="effect4_innerShadow_109_457"/>
</filter>
</defs>
</svg>
