<svg width="83" height="40" viewBox="0 0 83 40" fill="none" xmlns="http://www.w3.org/2000/svg">
<path d="M5.5 0C2.46243 0 0 2.46244 0 5.5V38.5C0 39.3284 0.671573 40 1.5 40C2.32843 40 3 39.3284 3 38.5V5.5C3 4.11929 4.11929 3 5.5 3C6.88071 3 8 4.11929 8 5.5V38.5C8 39.3284 8.67157 40 9.5 40C10.3284 40 11 39.3284 11 38.5V5.5C11 2.46243 8.53757 0 5.5 0Z" fill="url(#paint0_linear_138_710)"/>
<path fill-rule="evenodd" clip-rule="evenodd" d="M21.5 0C18.4624 0 16 2.46243 16 5.5V34.5C16 37.5376 18.4624 40 21.5 40C24.5376 40 27 37.5376 27 34.5V27.1C27 26.2716 26.3284 25.6 25.5 25.6C24.6716 25.6 24 26.2716 24 27.1V34.5C24 35.8807 22.8807 37 21.5 37C20.1193 37 19 35.8807 19 34.5V26.0247C21.2332 25.4992 23.0805 23.8632 24.3817 22.0228C25.9805 19.7613 27 16.8644 27 14.3V5.5C27 2.46243 24.5376 0 21.5 0ZM19 5.5C19 4.11929 20.1193 3 21.5 3C22.8807 3 24 4.11929 24 5.5V14.3C24 16.154 23.2286 18.4571 21.932 20.2909C21.051 21.5371 20.0329 22.4261 19 22.8721V5.5Z" fill="url(#paint1_linear_138_710)"/>
<path d="M33.5 0C32.6716 0 32 0.671573 32 1.5V34.5C32 37.5376 34.4624 40 37.5 40C40.5376 40 43 37.5376 43 34.5V1.5C43 0.671572 42.3284 0 41.5 0C40.6716 0 40 0.671573 40 1.5V34.5C40 35.8807 38.8807 37 37.5 37C36.1193 37 35 35.8807 35 34.5V1.5C35 0.671572 34.3284 0 33.5 0Z" fill="url(#paint2_linear_138_710)"/>
<path d="M53.5 0C50.4624 0 48 2.46244 48 5.5V38.5C48 39.3284 48.6716 40 49.5 40C50.3284 40 51 39.3284 51 38.5V5.5C51 4.11929 52.1193 3 53.5 3C54.8807 3 56 4.11929 56 5.5V34.5C56 35.3284 56.6716 36 57.5 36C58.3284 36 59 35.3284 59 34.5V5.5C59 4.11929 60.1193 3 61.5 3C62.8807 3 64 4.11929 64 5.5V38.5C64 39.3284 64.6716 40 65.5 40C66.3284 40 67 39.3284 67 38.5V5.5C67 2.46243 64.5376 0 61.5 0C59.9237 0 58.5023 0.66353 57.5 1.7251C56.4977 0.66353 55.0763 0 53.5 0Z" fill="url(#paint3_linear_138_710)"/>
<path fill-rule="evenodd" clip-rule="evenodd" d="M77.5 0C74.4624 0 72 2.46244 72 5.5V34.5C72 37.5376 74.4624 40 77.5 40C80.5376 40 83 37.5376 83 34.5V5.5C83 2.46243 80.5376 0 77.5 0ZM75 5.5C75 4.11929 76.1193 3 77.5 3C78.8807 3 80 4.11929 80 5.5V34.5C80 35.8807 78.8807 37 77.5 37C76.1193 37 75 35.8807 75 34.5V5.5Z" fill="url(#paint4_linear_138_710)"/>
<defs>
<linearGradient id="paint0_linear_138_710" x1="0" y1="0" x2="79.7007" y2="45.748" gradientUnits="userSpaceOnUse">
<stop stop-color="#66CCFF"/>
<stop offset="1" stop-color="#0073E5"/>
</linearGradient>
<linearGradient id="paint1_linear_138_710" x1="0" y1="0" x2="79.7007" y2="45.748" gradientUnits="userSpaceOnUse">
<stop stop-color="#66CCFF"/>
<stop offset="1" stop-color="#0073E5"/>
</linearGradient>
<linearGradient id="paint2_linear_138_710" x1="0" y1="0" x2="79.7007" y2="45.748" gradientUnits="userSpaceOnUse">
<stop stop-color="#66CCFF"/>
<stop offset="1" stop-color="#0073E5"/>
</linearGradient>
<linearGradient id="paint3_linear_138_710" x1="0" y1="0" x2="79.7007" y2="45.748" gradientUnits="userSpaceOnUse">
<stop stop-color="#66CCFF"/>
<stop offset="1" stop-color="#0073E5"/>
</linearGradient>
<linearGradient id="paint4_linear_138_710" x1="0" y1="0" x2="79.7007" y2="45.748" gradientUnits="userSpaceOnUse">
<stop stop-color="#66CCFF"/>
<stop offset="1" stop-color="#0073E5"/>
</linearGradient>
</defs>
</svg>
